:version 1.10
:name ASF
:units
  mass 1
  length 1
  angle deg
:documentation
  ASF file generated by Kaydara
:root
  axis xyz
  order  tx ty tz rx ry rz
  position 0 0 0
  orientation 0 0 0
:bonedata
  begin
    id 1
    name RightUpLegDummy
    direction -0.718183 -0.695806 0.00816078
    length 4.904
    axis 0 0 0 xyz
  end
  begin
    id 2
    name RightUpLeg
    direction 3.52958e-006 -0.995788 0.0916897
    length 17.4976
    axis -3.49089 -0.000906604 0.000286563 xyz
    dof rx ry rz
  end
  begin
    id 3
    name RightLeg
    direction 0.00371092 -0.995096 -0.0988418
    length 16.5821
    axis 3.68512 0.0193729 -0.131024 xyz
    dof rx ry rz
  end
  begin
    id 4
    name RightFoot
    direction 0.000791509 -0.46099 0.887405
    length 3.77069
    axis 4.79326e-005 -0.12048 -0.188786 xyz
    dof rx ry rz
  end
  begin
    id 5
    name RightToes
    direction 0.00124744 -0.014064 0.9999
    length 3.85082
    axis 0.000481823 0.542162 -0.142575 xyz
    dof rx ry rz
  end
  begin
    id 6
    name SpineDummy
    direction 8.3039e-015 1 4.5985e-016
    length 4.6813
    axis 0 0 0 xyz
  end
  begin
    id 7
    name Spine
    direction -2.76001e-008 0.999988 0.00495137
    length 10.1015
    axis -0.00138904 0.000121419 2.18259e-006 xyz
    dof rx ry rz
  end
  begin
    id 8
    name Spine1
    direction 0 0 0
    length 0
    axis -0.00138909 0.000121453 1.00341e-006 xyz
    dof rx ry rz
  end
  begin
    id 9
    name HEadDummy
    direction -1.48118e-008 0.999999 0.00127422
    length 3.43865
    axis -0.00138909 0.000121453 1.00341e-006 xyz
  end
  begin
    id 10
    name HEad
    direction -0.0222688 0.980941 0.193023
    length 5.12695
    axis -0.00138909 0.000121453 1.00341e-006 xyz
    dof rx ry rz
  end
  begin
    id 11
    name LeftShoulder1Dummy
    direction 0.998891 -0.0402509 -0.0244456
    length 3.5433
    axis -0.00138909 0.000121453 1.00341e-006 xyz
  end
  begin
    id 12
    name LeftShoulder1
    direction 0.99951 -0.000327768 0.0313091
    length 4.05031
    axis -0.00138909 0.000121453 1.00341e-006 xyz
    dof rx ry rz
  end
  begin
    id 13
    name LeftArm
    direction 0.998561 -0.00100057 -0.0536182
    length 10.3537
    axis -23.1894 0.134785 0.967509 xyz
    dof rx ry rz
  end
  begin
    id 14
    name LeftForeArm
    direction 0.998903 0.00866432 0.0460119
    length 8.70632
    axis -9.91835 -0.0656885 -0.177794 xyz
    dof rx ry rz
  end
  begin
    id 15
    name LeftHand
    direction 0.992938 -0.0411637 0.11126
    length 5.32135
    axis -0.00960338 -0.0033994 0.185172 xyz
    dof rx ry rz
  end
  begin
    id 16
    name RightShoulderDummy
    direction -0.998891 -0.0402509 -0.0244414
    length 3.5433
    axis -0.00138909 0.000121453 1.00341e-006 xyz
  end
  begin
    id 17
    name RightShoulder
    direction -0.99951 -0.000327802 0.0313133
    length 4.05031
    axis 0.215806 0.000203644 -0.0068029 xyz
    dof rx ry rz
  end
  begin
    id 18
    name RightArm
    direction -0.998573 -0.000999559 -0.053403
    length 10.3947
    axis -23.2009 -0.13424 -0.964101 xyz
    dof rx ry rz
  end
  begin
    id 19
    name RightForeArm
    direction -0.998898 0.00868028 0.0461306
    length 8.68355
    axis -9.92322 0.0658049 0.178868 xyz
    dof rx ry rz
  end
  begin
    id 20
    name RightHand
    direction -0.992843 -0.0414603 0.112003
    length 5.28593
    axis -0.00961221 0.00330442 -0.185228 xyz
    dof rx ry rz
  end
  begin
    id 21
    name LeftUpLegDummy
    direction 0.718183 -0.695806 0.00816078
    length 4.904
    axis 0 0 0 xyz
  end
  begin
    id 22
    name LeftUpLeg
    direction -6.82186e-006 -0.995793 0.0916336
    length 17.4976
    axis -3.48766 0.0014344 -0.00052451 xyz
    dof rx ry rz
  end
  begin
    id 23
    name LeftLeg
    direction -0.00601358 -0.995091 -0.0987824
    length 16.5821
    axis 3.68177 -0.00653924 -0.000285273 xyz
    dof rx ry rz
  end
  begin
    id 24
    name LeftFoot
    direction -0.00417579 -0.460984 0.887399
    length 3.77069
    axis 9.18994e-007 4.80418e-005 -1.15487e-005 xyz
    dof rx ry rz
  end
  begin
    id 25
    name LeftToes
    direction 0.00818061 -0.0048516 0.999955
    length 3.85048
    axis 1.03739e-005 4.80329e-005 -1.15497e-005 xyz
    dof rx ry rz
  end
:hierarchy
  begin
    root RightUpLegDummy SpineDummy LeftUpLegDummy
    RightUpLegDummy RightUpLeg
    RightUpLeg RightLeg
    RightLeg RightFoot
    RightFoot RightToes
    SpineDummy Spine
    Spine Spine1
    Spine1 HEadDummy LeftShoulder1Dummy RightShoulderDummy
    HEadDummy HEad
    LeftShoulder1Dummy LeftShoulder1
    LeftShoulder1 LeftArm
    LeftArm LeftForeArm
    LeftForeArm LeftHand
    RightShoulderDummy RightShoulder
    RightShoulder RightArm
    RightArm RightForeArm
    RightForeArm RightHand
    LeftUpLegDummy LeftUpLeg
    LeftUpLeg LeftLeg
    LeftLeg LeftFoot
    LeftFoot LeftToes
  end

:SAMPLES-PER-SECOND 25
:FULLY-SPECIFIED
:DEGREES
25
root  6.79484 39.6999 -89.7146 1.67462 4.25843 -2.34542
RightUpLeg  -6.47192 3.11034 5.94881
RightLeg  10.4833 -10.8427 -3.30557
RightFoot  -9.00883 -0.12779 3.27212
RightToes  2.84633e-005 7.89722e-005 -0.000426369
Spine  3.60821 1.0516 2.81271
Spine1  7.29052 1.88015 5.05561
HEad  28.7439 -13.9436 -3.32126
LeftShoulder1  -3.88251e-019 0 -3.92111e-022
LeftArm  -31.2931 3.07482 -88.4107
LeftForeArm  33.902 2.13661 -1.32752
LeftHand  -0.821927 -4.62729 9.80267
RightShoulder  7.45443e-017 -2.42657e-020 1.96277e-018
RightArm  -23.7626 -8.71173 72.9466
RightForeArm  29.1206 1.54597 4.38515
RightHand  -1.03927 9.4534 -8.49198
LeftUpLeg  -18.283 -3.32238 0.523011
LeftLeg  14.3828 3.64965 1.89675
LeftFoot  -0.600751 -0.136608 1.48464
LeftToes  3.91355e-005 3.11907e-005 -4.10385e-006
26
root  6.92827 39.76 -89.4225 2.67681 4.274 -2.21771
RightUpLeg  -6.59886 3.00089 5.56943
RightLeg  9.53013 -10.6694 -3.06821
RightFoot  -8.87204 -0.133319 3.38893
RightToes  2.84633e-005 7.89722e-005 -0.000426369
Spine  3.71529 0.958798 2.37271
Spine1  7.47635 1.74959 4.80378
HEad  28.588 -13.8043 -2.92316
LeftShoulder1  -3.88251e-019 0 -3.92111e-022
LeftArm  -32.0622 3.64605 -87.8118
LeftForeArm  33.6312 2.08738 -0.384145
LeftHand  -0.823623 -5.10921 9.39724
RightShoulder  7.45443e-017 -2.42657e-020 1.96277e-018
RightArm  -23.8511 -8.28026 73.0643
RightForeArm  29.0719 1.33926 4.30045
RightHand  -1.2406 10.1017 -9.653
LeftUpLeg  -17.7867 -1.67248 -0.645996
LeftLeg  8.06346 -0.378164 1.58502
LeftFoot  1.06899 -0.121297 1.05632
LeftToes  3.91355e-005 3.11907e-005 -4.10385e-006
27
root  7.09257 39.8362 -88.9497 3.50413 3.56096 -2.38361
RightUpLeg  -6.02394 2.9249 5.5472
RightLeg  8.10477 -9.93468 -2.76812
RightFoot  -8.64405 -0.134161 3.19699
RightToes  2.84633e-005 7.89722e-005 -0.000426369
Spine  3.70462 0.911961 2.12447
Spine1  7.44137 1.69308 4.5976
HEad  28.9072 -13.6076 -2.89889
LeftShoulder1  -3.88251e-019 0 -3.92111e-022
LeftArm  -33.648 4.16526 -87.331
LeftForeArm  33.3158 1.95322 1.29917
LeftHand  -0.920772 -4.49979 11.0715
RightShoulder  7.45443e-017 -2.42657e-020 1.96277e-018
RightArm  -23.8329 -8.3784 73.0361
RightForeArm  28.7161 2.73231 5.02123
RightHand  -1.1114 9.71615 -8.90019
LeftUpLeg  -16.7733 -0.800144 -0.609175
LeftLeg  3.98957 1.65158 1.79462
LeftFoot  4.16613 -0.181944 1.17052
LeftToes  3.91355e-005 3.11907e-005 -4.10385e-006
28
root  7.2387 39.8668 -88.2885 3.59368 2.81054 -2.73877
RightUpLeg  -4.6006 3.15103 5.93872
RightLeg  7.29673 -9.62938 -2.92035
RightFoot  -9.19404 -0.124512 3.36379
RightToes  2.84633e-005 7.89722e-005 -0.000426369
Spine  3.70194 0.702419 2.01719
Spine1  7.42475 1.27758 4.32579
HEad  29.4684 -12.6297 -2.62709
LeftShoulder1  -3.88251e-019 0 -3.92111e-022
LeftArm  -34.8171 5.71543 -86.8919
LeftForeArm  32.8919 1.88349 3.02461
LeftHand  -0.852317 -4.52059 10.2591
RightShoulder  7.45443e-017 -2.42657e-020 1.96277e-018
RightArm  -23.9373 -8.65121 72.9626
RightForeArm  28.3764 3.9836 6.34329
RightHand  -1.16637 10.0075 -9.15666
LeftUpLeg  -15.1971 -0.0146965 0.035274
LeftLeg  3.08504 4.03783 1.45975
LeftFoot  5.0336 -0.0442579 0.0923273
LeftToes  3.91355e-005 3.11907e-005 -4.10385e-006
29
root  7.44659 39.8798 -87.5053 2.69422 2.86067 -2.15547
RightUpLeg  -2.59373 2.35295 4.87125
RightLeg  7.9739 -8.92693 -2.52503
RightFoot  -10.898 -0.090071 3.68992
RightToes  2.84633e-005 7.89722e-005 -0.000426369
Spine  4.06519 0.181469 1.6658
Spine1  8.13071 0.237195 3.5723
HEad  29.5045 -12.0733 -2.29925
LeftShoulder1  -3.88251e-019 0 -3.92111e-022
LeftArm  -35.3184 6.83824 -86.5164
LeftForeArm  33.0241 1.87168 3.31465
LeftHand  -0.708264 -4.23337 8.80735
RightShoulder  7.45443e-017 -2.42657e-020 1.96277e-018
RightArm  -24.0124 -8.9301 73.093
RightForeArm  27.7284 5.50491 7.31285
RightHand  -0.966241 9.97205 -7.66556
LeftUpLeg  -13.362 -0.279428 -0.744713
LeftLeg  4.12354 3.80004 1.24407
LeftFoot  3.30273 -0.093608 0.571135
LeftToes  3.91355e-005 3.11907e-005 -4.10385e-006
